<svg xmlns="http://www.w3.org/2000/svg"  viewBox="0 0 50 50" width="100px" height="100px"><path d="M 25 3 C 22.250421 3 20 5.2504209 20 8 C 20 10.749579 22.250421 13 25 13 C 27.749579 13 30 10.749579 30 8 C 30 5.2504209 27.749579 3 25 3 z M 25 5 C 26.668699 5 28 6.3313011 28 8 C 28 9.6686989 26.668699 11 25 11 C 23.331301 11 22 9.6686989 22 8 C 22 6.3313011 23.331301 5 25 5 z M 20.5 14 C 17.475695 14 15 16.476746 15 19.5 L 15 30 L 11 30 L 11 24 A 1.0001 1.0001 0 0 0 9.984375 22.986328 A 1.0001 1.0001 0 0 0 9 24 L 9 38 A 1.0001 1.0001 0 1 0 11 38 L 11 32 L 15.1875 32 C 15.604868 33.157321 16.706873 34 18 34 C 19.293127 34 20.395132 33.157321 20.8125 32 L 29.1875 32 C 29.604868 33.157321 30.706873 34 32 34 C 33.293127 34 34.395132 33.157321 34.8125 32 L 39 32 L 39 38 A 1.0001 1.0001 0 1 0 41 38 L 41 24 A 1.0001 1.0001 0 0 0 39.984375 22.986328 A 1.0001 1.0001 0 0 0 39 24 L 39 30 L 35 30 L 35 19.5 C 35 16.476746 32.524305 14 29.5 14 L 20.5 14 z M 20.5 16 L 29.5 16 C 31.439695 16 33 17.561254 33 19.5 L 33 31 C 33 31.56503 32.56503 32 32 32 C 31.43497 32 31 31.56503 31 31 L 31 21 A 1.0001 1.0001 0 1 0 29 21 L 29 30 L 21 30 L 21 21 A 1.0001 1.0001 0 1 0 19 21 L 19 31 C 19 31.56503 18.56503 32 18 32 C 17.43497 32 17 31.56503 17 31 L 17 19.5 C 17 17.561254 18.560305 16 20.5 16 z M 5.984375 22.986328 A 1.0001 1.0001 0 0 0 5 24 L 5 30 L 4 30 A 1.0001 1.0001 0 1 0 4 32 L 5 32 L 5 38 A 1.0001 1.0001 0 1 0 7 38 L 7 31.167969 A 1.0001 1.0001 0 0 0 7 30.841797 L 7 24 A 1.0001 1.0001 0 0 0 5.984375 22.986328 z M 43.984375 22.986328 A 1.0001 1.0001 0 0 0 43 24 L 43 30.832031 A 1.0001 1.0001 0 0 0 43 31.158203 L 43 38 A 1.0001 1.0001 0 1 0 45 38 L 45 32 L 46 32 A 1.0001 1.0001 0 1 0 46 30 L 45 30 L 45 24 A 1.0001 1.0001 0 0 0 43.984375 22.986328 z M 22.164062 34 L 19.978516 44.208984 C 19.865516 44.739984 19.290016 45.087516 18.791016 44.978516 C 18.252016 44.862516 17.907438 44.331016 18.023438 43.791016 L 19.765625 35.662109 C 19.213625 35.871109 18.623 36 18 36 C 17.881 36 17.769344 35.972844 17.652344 35.964844 L 16.066406 43.371094 C 15.899406 44.155094 16.044469 44.957859 16.480469 45.630859 C 16.915469 46.303859 17.587094 46.765594 18.371094 46.933594 C 18.576094 46.977594 18.787953 47 19.001953 47 C 20.405953 47 21.638594 46.002906 21.933594 44.628906 L 24.210938 34 L 22.164062 34 z M 25.789062 34 L 28.066406 44.628906 C 28.360406 46.002906 29.594047 47 30.998047 47 C 31.212047 47 31.424906 46.977594 31.628906 46.933594 C 32.412906 46.765594 33.082578 46.303859 33.517578 45.630859 C 33.953578 44.957859 34.101594 44.155094 33.933594 43.371094 L 32.345703 35.964844 C 32.229703 35.972844 32.119 36 32 36 C 31.377 36 30.786328 35.872109 30.236328 35.662109 L 31.978516 43.791016 C 32.094516 44.330016 31.748984 44.861516 31.208984 44.978516 C 30.713984 45.087516 30.135484 44.740984 30.021484 44.208984 L 27.835938 34 L 25.789062 34 z"/></svg>